<svg width="6" height="47" viewBox="0 0 6 47" fill="none" xmlns="http://www.w3.org/2000/svg">
<path d="M3 0.833333C1.52724 0.833333 0.333333 2.02724 0.333333 3.5C0.333333 4.97276 1.52724 6.16667 3 6.16667C4.47276 6.16667 5.66667 4.97276 5.66667 3.5C5.66667 2.02724 4.47276 0.833333 3 0.833333ZM3 40.8333C1.52724 40.8333 0.333333 42.0272 0.333333 43.5C0.333333 44.9728 1.52724 46.1667 3 46.1667C4.47276 46.1667 5.66667 44.9728 5.66667 43.5C5.66667 42.0272 4.47276 40.8333 3 40.8333ZM2.5 3.5L2.5 43.5H3.5L3.5 3.5H2.5Z" fill="#1A77B9"/>
</svg>
